<svg id="Layer_1" data-name="Layer 1" xmlns="http://www.w3.org/2000/svg" viewBox="0 0 220.67 128.7"><defs><style>.cls-1{fill:#66523b;}.cls-2{fill:#636466;}</style></defs><title>Trappist_collective_ID_w_tag_2018Mar09</title><path class="cls-1" d="M31.6,11v5.64H23.25V40.22H17V16.63H8.64V11Z"/><path class="cls-1" d="M36.28,11H49.23c5.84,0,10,4.26,10,9.6A9.45,9.45,0,0,1,54,29.15l6.26,11.07H53.61L48,30H42.55V40.22H36.28ZM49,16.63H42.55v7.72H49a3.79,3.79,0,0,0,4-3.76A3.84,3.84,0,0,0,49,16.63Z"/><path class="cls-1" d="M72.28,33.33l-2.5,6.89H63.1L74.58,11h6.68L92.74,40.22H86.06l-2.51-6.89Zm5.64-15-3.55,9.6h7.1Z"/><path class="cls-1" d="M109.32,11c6.06,0,10.44,4.3,10.44,9.81s-4.38,9.81-10.44,9.81h-6v9.61H97V11Zm-6,5.64V25h5.84a4.18,4.18,0,1,0,0-8.35Z"/><path class="cls-1" d="M137.6,11c6.05,0,10.43,4.3,10.43,9.81s-4.38,9.81-10.43,9.81h-6.06v9.61h-6.26V11Zm-6.06,5.64V25h5.85a4.18,4.18,0,1,0,0-8.35Z"/><path class="cls-1" d="M153.59,11h6.26V40.22h-6.26Z"/><path class="cls-1" d="M165.79,18.92c0-4.59,4-8.56,10.23-8.56a12.5,12.5,0,0,1,9.6,4l-3.76,4a7.63,7.63,0,0,0-5.43-2.51c-2.5,0-4,1.46-4,3.13,0,5.43,14.4,2.3,14.4,12.74,0,5.22-4,9.19-11.06,9.19A14.54,14.54,0,0,1,164.74,36l3.76-3.76a9.34,9.34,0,0,0,6.89,3.14c3.13,0,4.8-1.67,4.8-3.76C180.19,26.23,165.79,29.36,165.79,18.92Z"/><path class="cls-1" d="M211.8,11v5.64h-8.35V40.22h-6.26V16.63h-8.35V11Z"/><path class="cls-2" d="M25.64,60.21c-.08,0,0,.2.06.23a5.07,5.07,0,0,1,3.46,4.65,4.77,4.77,0,0,1-2.31,4.17,9.8,9.8,0,0,1-5,1.3c-.79,0-3.55-.12-4.85-.12-.73,0-1.41,0-1.86,0s-.85-.14-.85-.39.43-.37.74-.43c1.91-.39,2-.76,2.08-1.71.06-.6.2-3.64.2-9.22a31,31,0,0,0-.17-4.42c-.14-.62-.25-.91-1.75-1.1-.39-.09-.76-.26-.76-.48s.37-.37.76-.37h1.89c.93,0,3.55-.2,4.71-.2A8.15,8.15,0,0,1,26,53a4.1,4.1,0,0,1-.31,7.21ZM24,61.71a6.37,6.37,0,0,0-2.87-.57,2.83,2.83,0,0,0-1.18.23c-.06.06-.17.2-.2.93a52.94,52.94,0,0,0,.11,5.49,2.09,2.09,0,0,0,.43,1,3.33,3.33,0,0,0,1.88,1,4.13,4.13,0,0,0,4.12-4.34A4,4,0,0,0,24,61.71Zm-2.64-8.65a6.25,6.25,0,0,0-1.19.22,1.26,1.26,0,0,0-.31.45c-.05.45-.14,1.61-.14,6.2,0,.14.09.37.31.37a9.56,9.56,0,0,0,3.83-.71,3.48,3.48,0,0,0,1.5-2.87C25.36,54.46,23.84,53.06,21.36,53.06Z"/><path class="cls-2" d="M31.62,60a17.09,17.09,0,0,0,2.25-.95,1.55,1.55,0,0,1,.59-.31c.15,0,.29.22.29.31,0,.5-.06,1-.06,1.55,0,.11.14.17.17.11A5.56,5.56,0,0,1,38,59c1.19,0,1.47.73,1.47,1a1.31,1.31,0,0,1-.17.42,6.94,6.94,0,0,1-1.21,1.38.83.83,0,0,1-.42-.08,2.9,2.9,0,0,0-1.61-.65,1.45,1.45,0,0,0-1.1.34.86.86,0,0,0-.28.62c0,.56.11,5.61.14,6,.06.81.25,1.35.73,1.46s.88.2,1.27.31.54.34.54.45-.26.29-.71.29c-.73,0-1.83-.15-3.47-.15-.78,0-1.18.12-1.85.12-.31,0-.6-.12-.6-.37s.37-.28.57-.37c1.07-.36,1.15-.64,1.18-2.33V62.21a1,1,0,0,0-.28-.9c-.62-.48-1-.7-1-.81A.59.59,0,0,1,31.62,60Z"/><path class="cls-2" d="M52,64.78a5.92,5.92,0,0,1-6.05,6A6,6,0,0,1,40.1,65a5.48,5.48,0,0,1,2-4.4A6.34,6.34,0,0,1,46.3,59,5.73,5.73,0,0,1,52,64.78Zm-8-4.14a5.33,5.33,0,0,0-1.3,3.66,7.93,7.93,0,0,0,.34,2.54,4,4,0,0,0,3.53,3.07,2.45,2.45,0,0,0,1.6-.88,6.35,6.35,0,0,0,1.21-3.74A6.88,6.88,0,0,0,48.08,61a3.46,3.46,0,0,0-2.31-1.09A2.87,2.87,0,0,0,44,60.64Z"/><path class="cls-2" d="M60.57,59.28s.31.14.34.26c0-.09.08.73.08,1.07s-.54.34-.73.34h-3a.27.27,0,0,0-.22.19c-.06.74-.09,4.57-.09,6a1.75,1.75,0,0,0,.51,1.38,2.39,2.39,0,0,0,1.63.53,3.2,3.2,0,0,0,1.36-.42.86.86,0,0,1,.45-.17s.14.06.14.31a1.14,1.14,0,0,1-.4.73,4.15,4.15,0,0,1-3,1.27A3.15,3.15,0,0,1,55,69.46a3.35,3.35,0,0,1-.36-1.89c0-1,.11-5.27.11-6.26,0-.19-.51-.39-1.1-.53-.22-.09-.37-.26-.37-.37a.41.41,0,0,1,.17-.31,16.41,16.41,0,0,0,2.4-2c.34-.37.53-.62.65-.62a.64.64,0,0,1,.42.34v1.35a.3.3,0,0,0,.25.23C57.83,59.4,60.45,59.28,60.57,59.28Z"/><path class="cls-2" d="M72.32,60.33a5.12,5.12,0,0,1,.82,3l.11,5.19c0,.7.37.92,1.1,1.09.56.14.79.31.79.48s-.23.37-.79.37c-.93,0-1.32-.09-2.23-.09-.73,0-1.29.06-2.14.06-.45,0-.62-.14-.62-.34s.26-.31.59-.42c.71-.2.82-.34.93-1.38.06-.54,0-3.72,0-4.2a4.68,4.68,0,0,0-.5-2.73,2.83,2.83,0,0,0-2.17-.88,4.09,4.09,0,0,0-2.12.62,2.28,2.28,0,0,0-.45,1.3c-.06,1.24-.08,5,0,5.89s.4,1.15,1.07,1.35c.4.11.62.28.62.42,0,.29-.33.37-.7.37s-1.58-.06-2.37-.06-1.74.09-2.22.09c-.26,0-.65-.11-.65-.37s.2-.34.79-.5c.76-.26,1-.62,1.1-1.55.08-1.13.28-4.88.28-7.89,0-1.33,0-5.84-.09-6.63s-.19-.76-1-1.27a.72.72,0,0,1-.28-.56.22.22,0,0,1,.11-.17,12.64,12.64,0,0,0,3-1,1.22,1.22,0,0,1,.51-.19c.11,0,.2.22.2.31-.28,2.06-.37,9-.37,9.75a.17.17,0,0,0,.2.17A5.35,5.35,0,0,1,69.33,59,3.44,3.44,0,0,1,72.32,60.33Z"/><path class="cls-2" d="M84.33,60.13a3.34,3.34,0,0,1,1,2.39.67.67,0,0,1-.57.54c-.31,0-5.07,0-6.37,0a.34.34,0,0,0-.25.23,3.62,3.62,0,0,0-.11,1,5.74,5.74,0,0,0,1,3.08,4.1,4.1,0,0,0,3.19,1.52,2.81,2.81,0,0,0,2.53-1c.12-.14.26-.34.37-.34s.25.23.25.34a2,2,0,0,1-.22.71A4.89,4.89,0,0,1,81,70.7c-3.07,0-5.07-2.34-5.07-5.61a6.05,6.05,0,0,1,3.4-5.55,5.88,5.88,0,0,1,2.2-.48A4.17,4.17,0,0,1,84.33,60.13Zm-5.92,1.8c0,.14.06.31.14.31.73,0,2.09,0,3.5,0,.62,0,1-.17,1-.76a1.89,1.89,0,0,0-1.81-1.72A3.08,3.08,0,0,0,78.41,61.93Z"/><path class="cls-2" d="M87.4,60a17.38,17.38,0,0,0,2.26-.95,1.55,1.55,0,0,1,.59-.31c.14,0,.28.22.28.31,0,.5,0,1,0,1.55,0,.11.14.17.16.11A5.61,5.61,0,0,1,93.83,59c1.18,0,1.47.73,1.47,1a1.31,1.31,0,0,1-.17.42,6.92,6.92,0,0,1-1.22,1.38.86.86,0,0,1-.42-.08,2.87,2.87,0,0,0-1.61-.65,1.42,1.42,0,0,0-1.09.34.87.87,0,0,0-.29.62c0,.56.12,5.61.14,6,.06.81.26,1.35.74,1.46s.87.2,1.27.31.53.34.53.45-.25.29-.7.29c-.74,0-1.84-.15-3.47-.15-.79,0-1.18.12-1.86.12-.31,0-.59-.12-.59-.37s.37-.28.56-.37c1.07-.36,1.16-.64,1.19-2.33V62.21c0-.33,0-.7-.29-.9-.62-.48-1-.7-1-.81A.57.57,0,0,1,87.4,60Z"/><path class="cls-2" d="M102,59.17a5.49,5.49,0,0,1,.9.31.69.69,0,0,1,.25.42c0,.48.09,1.5.09,1.69s-.14.54-.34.54-.34-.23-.48-.54c-.62-1.29-1.35-1.86-2.28-1.86a1.73,1.73,0,0,0-1.61,1.67c0,1,.93,1.69,2.71,2.67s2.31,2,2.31,3.25a3.42,3.42,0,0,1-1.66,2.76,5.12,5.12,0,0,1-2.46.67,5.66,5.66,0,0,1-2.76-.62A7,7,0,0,1,96.17,68c0-.36.09-.62.23-.62s.45.34.62.65c.81,1.49,1.63,2,2.59,2a1.87,1.87,0,0,0,1.13-.42,2,2,0,0,0,.65-1.5,2.15,2.15,0,0,0-1.25-1.8c-.7-.48-.9-.65-1.8-1.18a3.61,3.61,0,0,1-1.77-2.91,3,3,0,0,1,1.57-2.62,4.66,4.66,0,0,1,2.34-.59A7.08,7.08,0,0,1,102,59.17Z"/><path class="cls-2" d="M119.45,59.17c0,.11.14.17.26.06,1.49-1.3,3.46-3.64,3.46-5.5a3,3,0,0,0-.59-1.49.72.72,0,0,1,0-.71,1.53,1.53,0,0,1,1.07-.65c.7,0,1.21.88,1.21,1.84,0,2.62-2.87,5.52-5.1,7.52A70.34,70.34,0,0,1,114,64.36a.52.52,0,0,0-.19.45,4.87,4.87,0,0,0,4.7,4.48,6.47,6.47,0,0,0,4-1.27c2.26-1.66,4-4.59,4.06-6.65a1,1,0,0,0-.11-.59,2.17,2.17,0,0,0-1.52-.43c-1.72,0-1.75,1.1-1.75,1.53a4.09,4.09,0,0,0,.42,1.52.42.42,0,0,1,0,.42,1.06,1.06,0,0,1-.84.28,1.42,1.42,0,0,1-1.38-1.18c0-1,.56-1.64,1.55-2.65a4.9,4.9,0,0,1,3.1-1.38,6,6,0,0,1,3.86,1.75,1.1,1.1,0,0,0,.76.45c.28,0,.42-.28.42-.68a4.21,4.21,0,0,0-.62-1.86c-.25-.37-.2-.56.31-.56a1.91,1.91,0,0,1,1.66,1.94,1.67,1.67,0,0,1-.76,1.47c-.34.14-1.49.79-1.94,1.07s-.48.11-.65-.06a7.62,7.62,0,0,0-1.38-1.21c-.09-.06-.28.08-.28.23a5.62,5.62,0,0,1-.14,1.12,12.65,12.65,0,0,1-2.51,5.39A9.56,9.56,0,0,1,118,71.43c-5.07,0-6.26-4-6.26-6.48a8.56,8.56,0,0,1,2.65-6.37c.65-.62,2.25-1.86,3.18-1.86C118.3,56.72,119.28,57.45,119.45,59.17ZM114,63.34c.7-.39,3.29-2.2,3.49-2.39s.23-.51.23-1-.51-1.72-1.36-1.72c-1.49,0-2.67,2.57-2.59,5C113.76,63.34,113.87,63.43,114,63.34Z"/><path class="cls-2" d="M148.57,52.35c.17.06.34.48.37.56,0,.48.28,2.23.28,2.34,0,.48,0,.74-.23.74a.81.81,0,0,1-.7-.6,4.91,4.91,0,0,0-1.35-2,3.25,3.25,0,0,0-2.06-.68,3.12,3.12,0,0,0-3.16,3.24c0,1.92,1.38,2.79,3.89,4.45s3.95,3.13,3.95,5.5a4.93,4.93,0,0,1-2.37,4,7.92,7.92,0,0,1-3.83,1,10.63,10.63,0,0,1-3.78-.73,2.16,2.16,0,0,1-.67-.87,25.71,25.71,0,0,1-.43-2.74c0-.14.28-.53.4-.53s.67.7,1.07,1.58a4.44,4.44,0,0,0,3.72,2.34,3.21,3.21,0,0,0,3.3-3.27c0-1.21-.57-2.46-3.44-4.29-2.51-1.6-4.17-3.24-4.17-5.66a4.75,4.75,0,0,1,1.57-3.5,6.21,6.21,0,0,1,4.23-1.35A19.84,19.84,0,0,1,148.57,52.35Z"/><path class="cls-2" d="M152.15,70.53c-.42,0-.73-.14-.73-.34s.2-.31.68-.42a1.6,1.6,0,0,0,1.12-.82,29.1,29.1,0,0,0,.12-3.21c0-.85,0-3.67,0-4s-.34-.46-1.13-1c-.17-.14-.25-.25-.25-.34s.28-.42.59-.5c1.1-.23,2.51-.85,2.93-1,.14,0,.28.25.28.31,0,.42-.17,4.14-.17,5.75,0,1.43,0,2.56.06,3.55s.59,1,1.3,1.18c.45.14.62.31.62.48s-.37.31-.71.31-1.6-.09-2.2-.09C153.7,70.41,152.66,70.53,152.15,70.53Zm3.72-15.81a1.55,1.55,0,0,1-1.4,1.43,1.72,1.72,0,0,1-1-.36,1.48,1.48,0,0,1-.45-1.07,1.37,1.37,0,0,1,1.55-1.47C155.42,53.25,155.87,54.18,155.87,54.72Z"/><path class="cls-2" d="M164.53,59.17a5.49,5.49,0,0,1,.9.31.74.74,0,0,1,.25.42c0,.48.09,1.5.09,1.69s-.14.54-.34.54-.34-.23-.48-.54c-.62-1.29-1.35-1.86-2.28-1.86a1.73,1.73,0,0,0-1.61,1.67c0,1,.93,1.69,2.71,2.67s2.31,2,2.31,3.25a3.43,3.43,0,0,1-1.67,2.76,5,5,0,0,1-2.45.67,5.66,5.66,0,0,1-2.76-.62,7,7,0,0,1-.45-2.17c0-.36.08-.62.22-.62s.46.34.62.65c.82,1.49,1.64,2,2.6,2a1.87,1.87,0,0,0,1.12-.42,2,2,0,0,0,.65-1.5,2.14,2.14,0,0,0-1.24-1.8c-.7-.48-.9-.65-1.8-1.18a3.61,3.61,0,0,1-1.78-2.91,3,3,0,0,1,1.58-2.62,4.66,4.66,0,0,1,2.34-.59A7.08,7.08,0,0,1,164.53,59.17Z"/><path class="cls-2" d="M174.82,59.28c.05,0,.31.14.33.26a9.72,9.72,0,0,1,.09,1.07c0,.28-.54.34-.73.34h-3a.27.27,0,0,0-.22.19c-.06.74-.09,4.57-.09,6a1.75,1.75,0,0,0,.51,1.38,2.39,2.39,0,0,0,1.63.53,3.2,3.2,0,0,0,1.36-.42.86.86,0,0,1,.45-.17s.14.06.14.31a1.14,1.14,0,0,1-.4.73,4.15,4.15,0,0,1-3,1.27,3.15,3.15,0,0,1-2.54-1.29,3.35,3.35,0,0,1-.36-1.89c0-1,.11-5.27.11-6.26,0-.19-.51-.39-1.1-.53-.23-.09-.37-.26-.37-.37a.41.41,0,0,1,.17-.31,17,17,0,0,0,2.4-2c.34-.37.53-.62.65-.62a.64.64,0,0,1,.42.34v1.35a.3.3,0,0,0,.25.23C172.08,59.4,174.7,59.28,174.82,59.28Z"/><path class="cls-2" d="M184.85,60.13a3.34,3.34,0,0,1,1,2.39.67.67,0,0,1-.57.54c-.31,0-5.07,0-6.37,0a.34.34,0,0,0-.25.23,3.62,3.62,0,0,0-.11,1,5.74,5.74,0,0,0,1,3.08,4.1,4.1,0,0,0,3.19,1.52,2.81,2.81,0,0,0,2.53-1c.12-.14.26-.34.37-.34s.25.23.25.34a2,2,0,0,1-.22.71,4.89,4.89,0,0,1-4.2,2.17c-3.07,0-5.07-2.34-5.07-5.61a6,6,0,0,1,3.41-5.55,5.8,5.8,0,0,1,2.19-.48A4.17,4.17,0,0,1,184.85,60.13Zm-5.92,1.8c-.05.14.06.31.14.31.74,0,2.09,0,3.5,0,.62,0,1-.17,1-.76a1.89,1.89,0,0,0-1.81-1.72A3.08,3.08,0,0,0,178.93,61.93Z"/><path class="cls-2" d="M187.93,60a17.72,17.72,0,0,0,2.25-.95,1.55,1.55,0,0,1,.59-.31c.14,0,.28.22.28.31,0,.5-.05,1-.05,1.55,0,.11.14.17.17.11A5.56,5.56,0,0,1,194.35,59c1.18,0,1.47.73,1.47,1a1.31,1.31,0,0,1-.17.42,7.27,7.27,0,0,1-1.21,1.38.88.88,0,0,1-.43-.08,2.87,2.87,0,0,0-1.6-.65,1.43,1.43,0,0,0-1.1.34A.87.87,0,0,0,191,62c0,.56.12,5.61.15,6,.05.81.25,1.35.73,1.46s.87.2,1.27.31.53.34.53.45-.25.29-.7.29c-.73,0-1.83-.15-3.47-.15-.79,0-1.18.12-1.86.12-.31,0-.59-.12-.59-.37s.37-.28.56-.37c1.07-.36,1.16-.64,1.19-2.33V62.21a1,1,0,0,0-.28-.9c-.62-.48-1-.7-1-.81A.57.57,0,0,1,187.93,60Z"/><path class="cls-2" d="M202.47,59.17a5.49,5.49,0,0,1,.9.31.64.64,0,0,1,.25.42c0,.48.09,1.5.09,1.69s-.14.54-.34.54-.34-.23-.48-.54c-.62-1.29-1.35-1.86-2.28-1.86A1.73,1.73,0,0,0,199,61.4c0,1,.93,1.69,2.71,2.67s2.31,2,2.31,3.25a3.42,3.42,0,0,1-1.66,2.76,5.11,5.11,0,0,1-2.45.67,5.68,5.68,0,0,1-2.77-.62,7,7,0,0,1-.45-2.17c0-.36.09-.62.23-.62s.45.34.62.65c.81,1.49,1.63,2,2.59,2a1.87,1.87,0,0,0,1.13-.42,2,2,0,0,0,.65-1.5,2.16,2.16,0,0,0-1.24-1.8c-.71-.48-.91-.65-1.81-1.18a3.61,3.61,0,0,1-1.77-2.91,3,3,0,0,1,1.58-2.62A4.59,4.59,0,0,1,201,59,7.08,7.08,0,0,1,202.47,59.17Z"/><path class="cls-1" d="M23.91,97.86l-.81.8a3,3,0,0,0-2.47-1.21,3,3,0,0,0,0,6,3.2,3.2,0,0,0,2.53-1.27L24,103a4.29,4.29,0,0,1-3.34,1.61,4.14,4.14,0,1,1,3.28-6.72Z"/><path class="cls-1" d="M29.22,96.42h1.27v8H29.22Z"/><path class="cls-1" d="M36,98.49c0-1.21,1-2.18,2.64-2.18a3.14,3.14,0,0,1,2.41,1l-.8.8a2.06,2.06,0,0,0-1.61-.69c-.86,0-1.38.52-1.38,1,0,1.84,4.25.69,4.25,3.67,0,1.38-1,2.42-2.87,2.42a3.62,3.62,0,0,1-2.87-1.27l.8-.8a2.53,2.53,0,0,0,2.07.92c1,0,1.61-.58,1.61-1.27C40.23,100.33,36,101.47,36,98.49Z"/><path class="cls-1" d="M51.8,96.42v1.15H49.39v6.89H48.13V97.57H45.72V96.42Z"/><path class="cls-1" d="M62.63,103.31v1.15h-5.8v-8h5.69v1.15H58.1v2.12h3.5v1.15H58.1v2.47Z"/><path class="cls-1" d="M68,96.42H71.4A2.48,2.48,0,0,1,74,98.89a2.54,2.54,0,0,1-1.61,2.35l1.84,3.22H72.83l-1.72-3.1H69.27v3.1H68Zm3.39,1.15H69.27v2.64H71.4a1.32,1.32,0,0,0,0-2.64Z"/><path class="cls-1" d="M86.76,97.86l-.8.8a3.07,3.07,0,0,0-2.47-1.21,3,3,0,1,0,0,6A3.22,3.22,0,0,0,86,102.16l.8.81a4.29,4.29,0,0,1-3.33,1.61,4.14,4.14,0,1,1,3.27-6.72Z"/><path class="cls-1" d="M92.08,96.42h1.26v8H92.08Z"/><path class="cls-1" d="M101.7,96.42H103l3.33,8H105l-.86-2.12h-3.56l-.87,2.12H98.37Zm-.69,4.77h2.65l-1.32-3.33Z"/><path class="cls-1" d="M118.16,96.42v8h-1.09l-4.48-5.8v5.8h-1.26v-8h1.09l4.48,5.8v-5.8Z"/><path class="cls-1" d="M123.65,98.49c0-1.21,1-2.18,2.64-2.18a3.14,3.14,0,0,1,2.41,1l-.8.8a2.06,2.06,0,0,0-1.61-.69c-.86,0-1.38.52-1.38,1,0,1.84,4.25.69,4.25,3.67,0,1.38-1,2.42-2.87,2.42a3.62,3.62,0,0,1-2.87-1.27l.8-.8a2.55,2.55,0,0,0,2.07.92c1,0,1.61-.58,1.61-1.27C127.9,100.33,123.65,101.47,123.65,98.49Z"/><path class="cls-1" d="M146.47,96.31a4.14,4.14,0,1,1-4.25,4.13A4.14,4.14,0,0,1,146.47,96.31Zm0,7.12a3,3,0,1,0-3-3A3,3,0,0,0,146.47,103.43Z"/><path class="cls-1" d="M161.84,96.42v1.15h-4.37v2.24h3.45V101h-3.45v3.5h-1.26v-8Z"/><path class="cls-1" d="M180.41,96.42v1.15H178v6.89h-1.27V97.57h-2.41V96.42Z"/><path class="cls-1" d="M191.93,104.46h-1.26V101h-4v3.5h-1.26v-8h1.26v3.39h4V96.42h1.26Z"/><path class="cls-1" d="M203.68,103.31v1.15h-5.8v-8h5.68v1.15h-4.42v2.12h3.5v1.15h-3.5v2.47Z"/><path class="cls-1" d="M16.38,113.11c0-1.21,1-2.19,2.65-2.19a3.15,3.15,0,0,1,2.41,1l-.81.8a2,2,0,0,0-1.6-.69c-.87,0-1.38.52-1.38,1,0,1.83,4.25.68,4.25,3.67,0,1.38-1,2.41-2.87,2.41a3.6,3.6,0,0,1-2.87-1.26l.8-.8A2.54,2.54,0,0,0,19,118c1,0,1.6-.57,1.6-1.26C20.63,114.94,16.38,116.09,16.38,113.11Z"/><path class="cls-1" d="M32.66,111v1.15H30.25v6.89H29v-6.89H26.57V111Z"/><path class="cls-1" d="M38.14,111h3.39a2.48,2.48,0,0,1,2.58,2.47,2.54,2.54,0,0,1-1.61,2.35l1.84,3.22H43L41.24,116H39.4v3.1H38.14Zm3.39,1.15H39.4v2.64h2.13a1.32,1.32,0,0,0,0-2.64Z"/><path class="cls-1" d="M50.28,111h1.26v8H50.28Z"/><path class="cls-1" d="M65,112.47l-.8.81a3.07,3.07,0,0,0-2.47-1.21,3,3,0,1,0,0,6,3.2,3.2,0,0,0,2.52-1.26l.81.8a4.29,4.29,0,0,1-3.33,1.61A4.14,4.14,0,1,1,65,112.47Z"/><path class="cls-1" d="M75.93,111v1.15H73.52v6.89H72.26v-6.89H69.84V111Z"/><path class="cls-1" d="M91.32,110.92a4.14,4.14,0,1,1-4.25,4.14A4.14,4.14,0,0,1,91.32,110.92Zm0,7.12a3,3,0,1,0-3-3A3,3,0,0,0,91.32,118Z"/><path class="cls-1" d="M101.51,119.08v-8h3.27a2.29,2.29,0,0,1,2.36,2.12,2,2,0,0,1-.81,1.61,2.35,2.35,0,0,1,1.21,2,2.46,2.46,0,0,1-2.58,2.36Zm1.26-7v2.18h2a1.09,1.09,0,1,0,0-2.18ZM105,118a1.33,1.33,0,0,0,0-2.65h-2.19V118Z"/><path class="cls-1" d="M113,113.11c0-1.21,1-2.19,2.64-2.19a3.13,3.13,0,0,1,2.41,1l-.8.8a2.06,2.06,0,0,0-1.61-.69c-.86,0-1.38.52-1.38,1,0,1.83,4.25.68,4.25,3.67,0,1.38-1,2.41-2.87,2.41a3.62,3.62,0,0,1-2.87-1.26l.8-.8a2.54,2.54,0,0,0,2.07.91c1,0,1.61-.57,1.61-1.26C117.27,114.94,113,116.09,113,113.11Z"/><path class="cls-1" d="M130.15,117.93v1.15h-5.8v-8H130v1.15h-4.42v2.12h3.5v1.15h-3.5v2.47Z"/><path class="cls-1" d="M136,111h3.38a2.48,2.48,0,0,1,2.59,2.47,2.54,2.54,0,0,1-1.61,2.35l1.84,3.22H140.8l-1.72-3.1h-1.84v3.1H136Zm3.38,1.15h-2.12v2.64h2.12a1.32,1.32,0,0,0,0-2.64Z"/><path class="cls-1" d="M147.08,111h1.32l2.47,6.43,2.47-6.43h1.32l-3.16,8h-1.26Z"/><path class="cls-1" d="M161.75,111H163l3.33,8H165l-.86-2.13H160.6l-.86,2.13h-1.32Zm-.69,4.76h2.64l-1.32-3.33Z"/><path class="cls-1" d="M178.65,111v8h-1.09l-4.48-5.8v5.8h-1.26v-8h1.09l4.48,5.8V111Z"/><path class="cls-1" d="M192.11,112.47l-.8.81a3.07,3.07,0,0,0-2.47-1.21,3,3,0,1,0,0,6,3.23,3.23,0,0,0,2.53-1.26l.8.8a4.29,4.29,0,0,1-3.33,1.61,4.14,4.14,0,1,1,3.27-6.72Z"/><path class="cls-1" d="M203.68,117.93v1.15h-5.8v-8h5.68v1.15h-4.42v2.12h3.5v1.15h-3.5v2.47Z"/></svg>